<svg id="Capa_5" data-name="Capa 5" xmlns="http://www.w3.org/2000/svg" xmlns:xlink="http://www.w3.org/1999/xlink" width="478.548" height="140.66" viewBox="0 0 478.548 140.66">
  <defs>
    <linearGradient id="linear-gradient" x1="-9.021" y1="17.023" x2="-8.018" y2="17.023" gradientUnits="objectBoundingBox">
      <stop offset="0" stop-color="#ffce2a"/>
      <stop offset="0.857" stop-color="#fff152"/>
    </linearGradient>
    <linearGradient id="linear-gradient-2" y1="0.5" x2="1" y2="0.5" gradientUnits="objectBoundingBox">
      <stop offset="0" stop-color="#ffce2a"/>
      <stop offset="1" stop-color="#fff152"/>
    </linearGradient>
    <linearGradient id="linear-gradient-5" x1="0.5" y1="1" x2="0.5" gradientUnits="objectBoundingBox">
      <stop offset="0" stop-color="#fff"/>
      <stop offset="0.143" stop-color="#fff"/>
      <stop offset="1" stop-color="#fff"/>
    </linearGradient>
    <linearGradient id="linear-gradient-6" x1="-0.06" y1="0.688" x2="2.578" y2="0.688" gradientUnits="objectBoundingBox">
      <stop offset="0" stop-color="#fff152"/>
      <stop offset="0.437"/>
    </linearGradient>
    <linearGradient id="linear-gradient-7" x1="-1.174" y1="0.688" x2="1.464" y2="0.688" xlink:href="#linear-gradient-6"/>
    <linearGradient id="linear-gradient-8" x1="0.494" y1="-0.048" x2="0.5" y2="0.496" gradientUnits="objectBoundingBox">
      <stop offset="0" stop-color="#ffd32f"/>
      <stop offset="0.91" stop-color="#ffee4e"/>
      <stop offset="1" stop-color="#fff152"/>
    </linearGradient>
  </defs>
  <path id="Trazado_58" data-name="Trazado 58" d="M7.36-66.191a2.187,2.187,0,0,1,.529-1.541,1.93,1.93,0,0,1,1.495-.575H39.926a19.143,19.143,0,0,1,7.636,1.541,19.883,19.883,0,0,1,6.279,4.232,20.133,20.133,0,0,1,4.255,6.3,19.289,19.289,0,0,1,1.564,7.751,18.605,18.605,0,0,1-1.081,6.417,17.42,17.42,0,0,1-3.059,5.313,22.443,22.443,0,0,1,5.244,7.222A20.933,20.933,0,0,1,62.7-20.653a19.9,19.9,0,0,1-1.61,7.935,21.652,21.652,0,0,1-4.347,6.578,20.673,20.673,0,0,1-6.394,4.485A18.466,18.466,0,0,1,42.64,0H9.384A2.155,2.155,0,0,1,7.912-.483,1.884,1.884,0,0,1,7.36-1.978ZM44.434-21.343a7.644,7.644,0,0,0-.53-2.76,8.144,8.144,0,0,0-1.476-2.461,7.762,7.762,0,0,0-2.259-1.771,6.009,6.009,0,0,0-2.836-.69H25.161v15.363H37.333a6.214,6.214,0,0,0,2.813-.644,7.5,7.5,0,0,0,2.259-1.725,7.907,7.907,0,0,0,1.5-2.461A7.883,7.883,0,0,0,44.434-21.343ZM42-48.068a6.526,6.526,0,0,0-.507-2.576,6.6,6.6,0,0,0-1.43-2.116,6.678,6.678,0,0,0-2.214-1.449,7.351,7.351,0,0,0-2.813-.529H25.161V-41.4h9.732a8.3,8.3,0,0,0,2.883-.483,6.255,6.255,0,0,0,2.237-1.38,6.58,6.58,0,0,0,1.453-2.116A6.673,6.673,0,0,0,42-48.068Z" transform="translate(11.493 87.472)" fill="#fff152"/>
  <path id="Trazado_39" data-name="Trazado 39" d="M784.059,187.025l-16.969-.013.016-20.731,16.969.013-.016,20.731h0" transform="translate(-748.507 -133.82)" fill="url(#linear-gradient)"/>
  <rect id="Rectángulo_24" data-name="Rectángulo 24" width="4.034" height="12.353" transform="translate(35.558 46.076)" fill="url(#linear-gradient-2)"/>
  <rect id="Rectángulo_25" data-name="Rectángulo 25" width="4.034" height="13.553" transform="translate(35.558 19.181)" fill="url(#linear-gradient-2)"/>
  <rect id="Rectángulo_26" data-name="Rectángulo 26" width="4.034" height="13.661" transform="translate(35.562 73.81)" fill="url(#linear-gradient-2)"/>
  <path id="Trazado_40" data-name="Trazado 40" d="M764.493,160.837a1.558,1.558,0,0,0-1.554.592,1.013,1.013,0,0,0-.087.813c.033.008.082-.134.149-.124s.069.136.111.141c.072.009.139-.358.237-.579C763.639,161.022,764.518,160.916,764.493,160.837Z" transform="translate(-748.507 -133.82)" fill="#ff387d"/>
  <rect id="Rectángulo_27" data-name="Rectángulo 27" width="20.881" height="7.216" rx="0.775" transform="translate(16.424 32.911)" fill="#ff6845"/>
  <rect id="Rectángulo_28" data-name="Rectángulo 28" width="20.881" height="7.216" rx="0.894" transform="translate(16.37 25.422)" fill="#6d38ff"/>
  <rect id="Rectángulo_29" data-name="Rectángulo 29" width="19.471" height="0.583" transform="translate(15.901 26.398)" fill="#fff" stroke="#000" stroke-miterlimit="10" stroke-width="0.15"/>
  <rect id="Rectángulo_30" data-name="Rectángulo 30" width="19.385" height="0.583" rx="0.015" transform="translate(15.987 26.981)" stroke="#000" stroke-miterlimit="10" stroke-width="0.15" fill="url(#linear-gradient-5)"/>
  <rect id="Rectángulo_31" data-name="Rectángulo 31" width="19.434" height="0.583" rx="0.178" transform="translate(15.938 27.564)" fill="#fff" stroke="#000" stroke-miterlimit="10" stroke-width="0.15"/>
  <rect id="Rectángulo_32" data-name="Rectángulo 32" width="19.438" height="0.583" transform="translate(15.929 28.147)" fill="#fff" stroke="#000" stroke-miterlimit="10" stroke-width="0.15"/>
  <rect id="Rectángulo_33" data-name="Rectángulo 33" width="19.351" height="0.583" transform="translate(16.021 28.739)" fill="#fff" stroke="#000" stroke-miterlimit="10" stroke-width="0.15"/>
  <rect id="Rectángulo_34" data-name="Rectángulo 34" width="19.471" height="0.583" transform="translate(15.896 29.333)" fill="#fff" stroke="#000" stroke-miterlimit="10" stroke-width="0.15"/>
  <rect id="Rectángulo_35" data-name="Rectángulo 35" width="19.471" height="0.583" transform="translate(15.901 29.916)" fill="#fff" stroke="#000" stroke-miterlimit="10" stroke-width="0.15"/>
  <rect id="Rectángulo_36" data-name="Rectángulo 36" width="19.385" height="0.583" transform="translate(15.982 30.5)" fill="#fff" stroke="#000" stroke-miterlimit="10" stroke-width="0.15"/>
  <rect id="Rectángulo_37" data-name="Rectángulo 37" width="19.434" height="0.583" transform="translate(15.938 31.083)" fill="#fff" stroke="#000" stroke-miterlimit="10" stroke-width="0.15"/>
  <rect id="Rectángulo_38" data-name="Rectángulo 38" width="19.471" height="0.583" transform="translate(15.949 33.885)" fill="#fff" stroke="#000" stroke-miterlimit="10" stroke-width="0.15"/>
  <rect id="Rectángulo_39" data-name="Rectángulo 39" width="19.385" height="0.583" rx="0.007" transform="translate(16.034 34.468)" fill="#fff" stroke="#000" stroke-miterlimit="10" stroke-width="0.15"/>
  <rect id="Rectángulo_40" data-name="Rectángulo 40" width="19.434" height="0.583" rx="0.085" transform="translate(15.986 35.051)" fill="#fff" stroke="#000" stroke-miterlimit="10" stroke-width="0.15"/>
  <rect id="Rectángulo_41" data-name="Rectángulo 41" width="19.438" height="0.583" rx="0.023" transform="translate(15.981 35.635)" fill="#fff" stroke="#000" stroke-miterlimit="10" stroke-width="0.15"/>
  <rect id="Rectángulo_42" data-name="Rectángulo 42" width="19.351" height="0.583" transform="translate(16.069 36.226)" fill="#fff" stroke="#000" stroke-miterlimit="10" stroke-width="0.15"/>
  <rect id="Rectángulo_43" data-name="Rectángulo 43" width="19.471" height="0.583" rx="0.124" transform="translate(15.949 36.82)" fill="#fff" stroke="#000" stroke-miterlimit="10" stroke-width="0.15"/>
  <rect id="Rectángulo_44" data-name="Rectángulo 44" width="19.471" height="0.583" rx="0.17" transform="translate(15.949 37.403)" fill="#fff" stroke="#000" stroke-miterlimit="10" stroke-width="0.15"/>
  <rect id="Rectángulo_45" data-name="Rectángulo 45" width="19.385" height="0.583" rx="0.016" transform="translate(16.03 37.987)" fill="#fff" stroke="#000" stroke-miterlimit="10" stroke-width="0.15"/>
  <rect id="Rectángulo_46" data-name="Rectángulo 46" width="19.434" height="0.583" rx="0.162" transform="translate(15.981 38.57)" fill="#fff" stroke="#000" stroke-miterlimit="10" stroke-width="0.15"/>
  <rect id="Rectángulo_47" data-name="Rectángulo 47" width="0.156" height="5.268" transform="translate(35.263 26.398)" fill="#1a1a1a"/>
  <rect id="Rectángulo_48" data-name="Rectángulo 48" width="0.156" height="5.268" transform="translate(35.263 33.883)" fill="#1a1a1a"/>
  <path id="Trazado_59" data-name="Trazado 59" d="M6.788-61.52a1.934,1.934,0,0,1,.49-1.323A1.748,1.748,0,0,1,8.662-63.4h12.6a2.3,2.3,0,0,1,1.341.512,1.608,1.608,0,0,1,.7,1.366v23.268q4.654-5.977,9.136-11.783T41.54-61.819a3.692,3.692,0,0,1,1.217-1.174,2.851,2.851,0,0,1,1.473-.448H60.453q1.025,0,1.025.64a1.789,1.789,0,0,1-.47,1.025L40.9-35.264,63.143-1.793a2.368,2.368,0,0,1,.47,1.153q0,.64-.939.64H46.535A2.732,2.732,0,0,1,45.1-.427,3.63,3.63,0,0,1,43.931-1.58q-2.263-3.074-4.12-5.892T36.2-13.085q-1.75-2.8-3.543-5.657t-3.928-6.02L23.31-18.529v16.65Q23.31,0,21.266,0H8.7A1.677,1.677,0,0,1,6.788-1.878Zm65.7.085a1.952,1.952,0,0,1,.491-1.409,1.727,1.727,0,0,1,1.174-.555h40.857a1.867,1.867,0,0,1,1.473.553,2.163,2.163,0,0,1,.491,1.49V-50.8a2.225,2.225,0,0,1-.512,1.384,1.777,1.777,0,0,1-1.494.66H89.014V-35.52h19.169a2.1,2.1,0,0,1,1.366.448,1.731,1.731,0,0,1,.555,1.43v10.2a2.3,2.3,0,0,1-.491,1.388,1.584,1.584,0,0,1-1.345.662H89.014V-1.836Q89.014,0,87.05,0H74.029a1.613,1.613,0,0,1-1.537-1.793Zm53.537-.128a1.884,1.884,0,0,1,.512-1.323,1.822,1.822,0,0,1,1.409-.555h12.637a1.986,1.986,0,0,1,1.323.512,1.838,1.838,0,0,1,.64,1.366v46.45h23.481a1.884,1.884,0,0,1,1.323.512,1.822,1.822,0,0,1,.555,1.409V-1.964a2.036,2.036,0,0,1-.491,1.323,1.814,1.814,0,0,1-1.388.64H127.907a1.66,1.66,0,0,1-1.878-1.878Zm52,.043a1.982,1.982,0,0,1,.47-1.323,1.742,1.742,0,0,1,1.409-.555h12.552a2.4,2.4,0,0,1,1.366.512,1.593,1.593,0,0,1,.726,1.366V-1.878Q194.551,0,192.459,0H179.907a1.66,1.66,0,0,1-1.878-1.878ZM202.107-1.11q.342-.64.7-1.3a15.733,15.733,0,0,1,.833-1.345l19.212-28.69q-4.91-7.386-9.713-14.6t-9.713-14.6a4.258,4.258,0,0,1-.406-.64,1.966,1.966,0,0,1-.192-.64.418.418,0,0,1,.491-.32,1.654,1.654,0,0,0,.833-.192h14.857a2.741,2.741,0,0,1,2.476,1.622l10.46,15.711,10.588-15.711a2.741,2.741,0,0,1,2.476-1.622H259.23q.47,0,.875.021a2.058,2.058,0,0,1,.7.149.414.414,0,0,1,.3.384,1.849,1.849,0,0,1-.47,1.11L241-32.446,261.023-2.562a7.438,7.438,0,0,1,.662,1.089,1.549,1.549,0,0,1,.192.833q0,.64-.768.64H245.825A2.225,2.225,0,0,1,244.5-.427a2.9,2.9,0,0,1-.939-1.153L231.949-18.785,220.465-1.58a2.9,2.9,0,0,1-.939,1.153A2.226,2.226,0,0,1,218.2,0H202.876a.969.969,0,0,1-.6-.192.629.629,0,0,1-.256-.534A.847.847,0,0,1,202.107-1.11Z" transform="translate(184.437 86)" fill="#fff152"/>
  <rect id="Rectángulo_49" data-name="Rectángulo 49" width="22.52" height="13.175" transform="translate(170.925 22.539)" fill="#fff152"/>
  <rect id="Rectángulo_50" data-name="Rectángulo 50" width="22.52" height="13.175" transform="translate(169.929 72.825)" fill="#fff152"/>
  <path id="Trazado_41" data-name="Trazado 41" d="M823.382,184.422c-.039-.127-.081-.254-.116-.381a7.42,7.42,0,0,0-1.471,4.867,23.817,23.817,0,0,0,1.391-3.192Q823.267,185.059,823.382,184.422Z" transform="translate(-748.507 -133.82)" fill="#fff152"/>
  <path id="Trazado_42" data-name="Trazado 42" d="M817.78,193.442a6.865,6.865,0,0,0,2.1-1.144,6.907,6.907,0,0,1-1.176-2.72A15.008,15.008,0,0,0,817.78,193.442Z" transform="translate(-748.507 -133.82)" fill="#fff152"/>
  <path id="Trazado_43" data-name="Trazado 43" d="M897.943,190.315a6.276,6.276,0,0,0-.165.933l.064-.029a6.48,6.48,0,0,0,1.513-1.041c.006-1.109.1-2.242,0-3.314A13.475,13.475,0,0,0,897.943,190.315Z" transform="translate(-748.507 -133.82)" fill="#fff152"/>
  <path id="Trazado_44" data-name="Trazado 44" d="M839.7,168.931a6.426,6.426,0,0,1,1.3,1.352,4.474,4.474,0,0,1,1.657-.673,5.7,5.7,0,0,1,.781-.093c-1.445-1.84-3.664-3.682-5.712-2.894a7.263,7.263,0,0,0,.456,1.9A1.811,1.811,0,0,1,839.7,168.931Z" transform="translate(-748.507 -133.82)" fill="#fff152"/>
  <g id="Grupo_26" data-name="Grupo 26" transform="translate(-748.507 -133.82)">
    <g id="Grupo_25" data-name="Grupo 25">
      <path id="Trazado_45" data-name="Trazado 45" d="M810.5,188.185a32.443,32.443,0,0,1,4.442-16.5,33.11,33.11,0,0,1,5.1-6.639,31.88,31.88,0,0,1,6.6-5.1,33.481,33.481,0,0,1,7.8-3.288,32.7,32.7,0,0,1,17.366,0,33.393,33.393,0,0,1,7.818,3.288,32.419,32.419,0,0,1,11.728,11.74,33.947,33.947,0,0,1,3.289,7.813,32.734,32.734,0,0,1,0,17.376,33.1,33.1,0,0,1-3.289,7.77,32.148,32.148,0,0,1-5.106,6.575,33.39,33.39,0,0,1-6.622,5.1,32.21,32.21,0,0,1-7.818,3.288,32.605,32.605,0,0,1-31.763-8.389,33.08,33.08,0,0,1-5.1-6.575,31.849,31.849,0,0,1-3.289-7.77A32.385,32.385,0,0,1,810.5,188.185Zm16.522-.043a18.119,18.119,0,0,0,1.193,6.618,16.348,16.348,0,0,0,3.348,5.358,15.586,15.586,0,0,0,5.094,3.586,16.833,16.833,0,0,0,12.983,0,15.532,15.532,0,0,0,5.116-3.586,16.33,16.33,0,0,0,3.347-5.358,18.877,18.877,0,0,0,0-13.214,16.52,16.52,0,0,0-3.347-5.4,15.907,15.907,0,0,0-23.193,0,16.539,16.539,0,0,0-3.348,5.4A18.171,18.171,0,0,0,827.02,188.142Z" fill="url(#linear-gradient-6)"/>
      <path id="Trazado_46" data-name="Trazado 46" d="M883.288,188.185a32.429,32.429,0,0,1,4.443-16.5,33.072,33.072,0,0,1,5.1-6.639,31.876,31.876,0,0,1,6.6-5.1,33.508,33.508,0,0,1,7.8-3.288,32.7,32.7,0,0,1,17.366,0,33.412,33.412,0,0,1,7.818,3.288,32.406,32.406,0,0,1,11.727,11.74,33.9,33.9,0,0,1,3.29,7.813,32.735,32.735,0,0,1,0,17.376,33.06,33.06,0,0,1-3.29,7.77,32.146,32.146,0,0,1-5.1,6.575,33.392,33.392,0,0,1-6.622,5.1,32.682,32.682,0,0,1-32.981,0,33.074,33.074,0,0,1-11.7-11.676,31.892,31.892,0,0,1-3.29-7.77A32.385,32.385,0,0,1,883.288,188.185Zm16.522-.043A18.141,18.141,0,0,0,901,194.76a16.365,16.365,0,0,0,3.348,5.358,15.6,15.6,0,0,0,5.095,3.586,16.834,16.834,0,0,0,12.983,0,15.541,15.541,0,0,0,5.116-3.586,16.363,16.363,0,0,0,3.347-5.358,18.877,18.877,0,0,0,0-13.214,16.554,16.554,0,0,0-3.347-5.4,15.909,15.909,0,0,0-23.194,0,16.557,16.557,0,0,0-3.348,5.4A18.193,18.193,0,0,0,899.81,188.142Z" fill="url(#linear-gradient-7)"/>
    </g>
    <text id="OO" transform="translate(806.57 219.82)" font-size="85.385" font-family="Cocogoose"><tspan x="0" y="0">OO</tspan></text>
  </g>
  <rect id="Rectángulo_51" data-name="Rectángulo 51" width="16.762" height="28.863" transform="translate(256.807 37.241)" fill="url(#linear-gradient-8)"/>
  <path id="Trazado_57" data-name="Trazado 57" d="M5.76-51.8a1.712,1.712,0,0,1,.414-1.206,1.51,1.51,0,0,1,1.17-.45h23.9a14.982,14.982,0,0,1,5.976,1.206,15.562,15.562,0,0,1,4.914,3.312,15.757,15.757,0,0,1,3.33,4.932,15.1,15.1,0,0,1,1.224,6.066,14.561,14.561,0,0,1-.846,5.022,13.633,13.633,0,0,1-2.394,4.158,17.565,17.565,0,0,1,4.1,5.652,16.384,16.384,0,0,1,1.512,6.948,15.572,15.572,0,0,1-1.26,6.21,16.946,16.946,0,0,1-3.4,5.148,16.179,16.179,0,0,1-5,3.51A14.453,14.453,0,0,1,33.372,0H7.344A1.687,1.687,0,0,1,6.192-.378a1.474,1.474,0,0,1-.432-1.17ZM34.776-16.7a5.983,5.983,0,0,0-.415-2.16,6.374,6.374,0,0,0-1.155-1.926,6.075,6.075,0,0,0-1.768-1.386,4.7,4.7,0,0,0-2.219-.54H19.692v12.024h9.527a4.863,4.863,0,0,0,2.2-.5,5.872,5.872,0,0,0,1.768-1.35,6.189,6.189,0,0,0,1.173-1.926A6.17,6.17,0,0,0,34.776-16.7ZM32.868-37.62a5.108,5.108,0,0,0-.4-2.016,5.169,5.169,0,0,0-1.119-1.656,5.227,5.227,0,0,0-1.733-1.134,5.753,5.753,0,0,0-2.2-.414H19.692V-32.4h7.617a6.5,6.5,0,0,0,2.256-.378,4.9,4.9,0,0,0,1.751-1.08,5.149,5.149,0,0,0,1.137-1.656A5.222,5.222,0,0,0,32.868-37.62ZM56.7-51.876a1.672,1.672,0,0,1,.4-1.116,1.469,1.469,0,0,1,1.188-.468H68.868a2.028,2.028,0,0,1,1.152.432,1.344,1.344,0,0,1,.612,1.152V-1.584Q70.632,0,68.868,0H58.284A1.4,1.4,0,0,1,56.7-1.584Zm25.524.072a1.714,1.714,0,0,1,.413-1.206,1.5,1.5,0,0,1,1.167-.45H119.52a1.585,1.585,0,0,1,1.224.467,1.776,1.776,0,0,1,.432,1.256v8.9a1.876,1.876,0,0,1-.432,1.167,1.5,1.5,0,0,1-1.26.556H96.156v8.928h18a1.892,1.892,0,0,1,1.134.324,1.24,1.24,0,0,1,.45,1.08V-23a1.492,1.492,0,0,1-.4.972,1.425,1.425,0,0,1-1.152.468H96.156v9.216h24.192a1.446,1.446,0,0,1,1.62,1.651v9.046a.89.89,0,0,1-.288.646Q121.536,0,120.2,0H83.8a1.68,1.68,0,0,1-1.149-.378,1.476,1.476,0,0,1-.431-1.17Zm48.744-.072a1.672,1.672,0,0,1,.4-1.116,1.469,1.469,0,0,1,1.188-.468h11.772a2.464,2.464,0,0,1,1.044.252,2.279,2.279,0,0,1,.936.864q4.572,7.38,9.072,14.544t9.108,14.544V-52.092a1.761,1.761,0,0,1,.576-1.008,1.527,1.527,0,0,1,1.008-.36h10.26a1.919,1.919,0,0,1,1.26.414,1.429,1.429,0,0,1,.5,1.17V-1.4a1.272,1.272,0,0,1-.432,1.062A1.866,1.866,0,0,1,176.472,0H164.988a1.2,1.2,0,0,1-.828-.324,5.7,5.7,0,0,1-.756-.864l-9.468-15.66q-4.68-7.74-9.5-15.66V-1.584a1.715,1.715,0,0,1-.36,1.188,1.707,1.707,0,0,1-1.3.4H132.552a1.49,1.49,0,0,1-1.206-.45,1.65,1.65,0,0,1-.378-1.1ZM204.552-.756a11.768,11.768,0,0,1-.7-1.332q-.306-.684-.594-1.4L184.788-51.84a.918.918,0,0,0-.054-.324.815.815,0,0,1-.054-.288q0-1.008,1.332-1.008H197.6a1.866,1.866,0,0,1,1.872,1.368l10.98,32.76q1.476-4.1,2.826-8.19t2.664-8.19q1.314-4.1,2.664-8.19t2.826-8.19a1.936,1.936,0,0,1,1.98-1.368h11.34a1.754,1.754,0,0,1,1.17.306,1.034,1.034,0,0,1,.342.81,1.449,1.449,0,0,1-.036.4v.108L217.656-3.492q-.18.5-.432,1.116a7.717,7.717,0,0,1-.576,1.134,3.622,3.622,0,0,1-.756.882,1.479,1.479,0,0,1-.972.36h-8.892A1.468,1.468,0,0,1,204.552-.756Zm38.2-51.048a1.714,1.714,0,0,1,.413-1.206,1.5,1.5,0,0,1,1.167-.45h35.716a1.585,1.585,0,0,1,1.224.467,1.776,1.776,0,0,1,.432,1.256v8.9a1.876,1.876,0,0,1-.432,1.167,1.5,1.5,0,0,1-1.26.556H256.68v8.928h18a1.892,1.892,0,0,1,1.134.324,1.24,1.24,0,0,1,.45,1.08V-23a1.492,1.492,0,0,1-.4.972,1.425,1.425,0,0,1-1.152.468H256.68v9.216h24.192a1.446,1.446,0,0,1,1.62,1.651v9.046a.891.891,0,0,1-.288.646Q282.06,0,280.728,0h-36.4a1.68,1.68,0,0,1-1.149-.378,1.476,1.476,0,0,1-.431-1.17Zm48.744-.072a1.672,1.672,0,0,1,.4-1.116,1.469,1.469,0,0,1,1.188-.468h11.772a2.464,2.464,0,0,1,1.044.252,2.279,2.279,0,0,1,.936.864Q311.4-44.964,315.9-37.8t9.108,14.544V-52.092a1.761,1.761,0,0,1,.576-1.008,1.527,1.527,0,0,1,1.008-.36h10.26a1.919,1.919,0,0,1,1.26.414,1.429,1.429,0,0,1,.5,1.17V-1.4a1.272,1.272,0,0,1-.432,1.062A1.866,1.866,0,0,1,337,0H325.512a1.2,1.2,0,0,1-.828-.324,5.7,5.7,0,0,1-.756-.864l-9.468-15.66q-4.68-7.74-9.5-15.66V-1.584A1.716,1.716,0,0,1,304.6-.4a1.707,1.707,0,0,1-1.3.4H293.076a1.49,1.49,0,0,1-1.206-.45,1.65,1.65,0,0,1-.378-1.1Zm59,0a1.672,1.672,0,0,1,.4-1.116,1.469,1.469,0,0,1,1.188-.468h10.584a2.028,2.028,0,0,1,1.152.432,1.344,1.344,0,0,1,.612,1.152V-1.584Q364.428,0,362.664,0H352.08A1.4,1.4,0,0,1,350.5-1.584Zm71.82,25.2a26.542,26.542,0,0,1-.972,7.254,25.889,25.889,0,0,1-2.772,6.408,26.581,26.581,0,0,1-4.3,5.382,26.546,26.546,0,0,1-5.544,4.1,27.913,27.913,0,0,1-6.57,2.61A28.9,28.9,0,0,1,394.848,0H377.1a2.28,2.28,0,0,1-1.152-.288,1.293,1.293,0,0,1-.5-1.224V-51.8a1.779,1.779,0,0,1,.414-1.224A1.572,1.572,0,0,1,377.1-53.5h17.748a28.172,28.172,0,0,1,7.29.936A27.6,27.6,0,0,1,408.69-49.9a28.047,28.047,0,0,1,5.562,4.14,25.576,25.576,0,0,1,4.3,5.4,27.076,27.076,0,0,1,2.772,6.444A26.149,26.149,0,0,1,422.316-26.676Zm-32.94-13.9v27.684H392.4q.828,0,1.62-.054t1.584-.126a14.481,14.481,0,0,0,5.04-1.314,13.975,13.975,0,0,0,4.086-2.88,12.948,12.948,0,0,0,2.736-4.194,13.71,13.71,0,0,0,.99-5.256,13.479,13.479,0,0,0-1.134-5.562,13.752,13.752,0,0,0-3.078-4.392,13.88,13.88,0,0,0-4.554-2.88,15.065,15.065,0,0,0-5.562-1.026Zm53.784,13.86a15.279,15.279,0,0,0,1.007,5.58,13.783,13.783,0,0,0,2.822,4.518,13.155,13.155,0,0,0,4.3,3.024,13.352,13.352,0,0,0,5.465,1.1,13.478,13.478,0,0,0,5.483-1.1,13.1,13.1,0,0,0,4.314-3.024,13.783,13.783,0,0,0,2.822-4.518,15.28,15.28,0,0,0,1.007-5.58,15.322,15.322,0,0,0-1.007-5.562,13.946,13.946,0,0,0-2.822-4.554,13.2,13.2,0,0,0-4.314-3.06A13.291,13.291,0,0,0,456.75-41a13.167,13.167,0,0,0-5.465,1.116,13.254,13.254,0,0,0-4.3,3.06,13.946,13.946,0,0,0-2.822,4.554A15.322,15.322,0,0,0,443.16-26.712Zm-13.932.036A27.311,27.311,0,0,1,430.2-34a27.546,27.546,0,0,1,2.774-6.588,27.907,27.907,0,0,1,4.3-5.6,26.855,26.855,0,0,1,5.566-4.3,28.243,28.243,0,0,1,6.575-2.772,26.9,26.9,0,0,1,7.331-.99,26.956,26.956,0,0,1,7.313.99,28.162,28.162,0,0,1,6.592,2.772,27.284,27.284,0,0,1,5.584,4.3,27.054,27.054,0,0,1,4.3,5.6A28.557,28.557,0,0,1,483.317-34a26.846,26.846,0,0,1,.991,7.326,26.846,26.846,0,0,1-.991,7.326,27.856,27.856,0,0,1-2.774,6.552,27.05,27.05,0,0,1-4.3,5.544,28.155,28.155,0,0,1-5.584,4.3A27.181,27.181,0,0,1,464.063-.18a27.424,27.424,0,0,1-7.313.972,27.362,27.362,0,0,1-7.331-.972,27.252,27.252,0,0,1-6.575-2.772,27.7,27.7,0,0,1-5.566-4.3,27.91,27.91,0,0,1-4.3-5.544A26.886,26.886,0,0,1,430.2-19.35,27.311,27.311,0,0,1,429.228-26.676Z" transform="translate(-5.76 139.868)"/>
</svg>
