<svg id="Capa_9" data-name="Capa 9" xmlns="http://www.w3.org/2000/svg" width="1746.927" height="1005.578" viewBox="0 0 1746.927 1005.578">
  <path id="Trazado_1" data-name="Trazado 1" d="M559.057,487.6s-94.811,10.145-82.876,59.98S548,612,548,612Z" transform="translate(-117.648 -289.422)" fill="#e7d4f4"/>
  <path id="Trazado_2" data-name="Trazado 2" d="M1333.16,506.388s79.6-181.855-22.249-211.244-189.854,64-189.854,64Z" transform="translate(-117.648 -289.422)" fill="#e7d4f4"/>
  <g id="Componente_1_1" data-name="Componente 1 – 1" transform="translate(414.583 20.761)">
    <path id="Trazado_3" data-name="Trazado 3" d="M571.056,679.31a73.209,73.209,0,0,0-3.833-10.814c-10.035-22.558-48.973-115.746-29.723-163,22-54,195-57,195-57s186.29-19.717,212-34c31.5-17.5,123.076-74.248,188.074-99.413a72.659,72.659,0,0,1,68.46,8.62C1268.2,371.667,1410.666,485.662,1345.5,548.5c-51.949,50.094,54.828,69.208,143.873,76.5,49.731,4.073,80.666,55.882,60.681,101.6l-9.973,22.815c-2.157,4.933-27.384,32.135-29.333,33.3a72.635,72.635,0,0,1-42.5,10.109L636.151,733.2A72.721,72.721,0,0,1,571.1,679.48Z" transform="translate(-532.23 -310.183)" fill="#0b5972"/>
  </g>
  <g id="Componente_8_1" data-name="Componente 8 – 1" transform="translate(427.967 220.684)">
    <path id="Trazado_4" data-name="Trazado 4" d="M545.615,611.591,664.581,554.6a25.858,25.858,0,0,1,12.084-2.534c16.129.569,54.163,4.707,29.335,31.938-31,34-148.632,60.348-148.632,60.348S546.23,613.181,545.615,611.591Z" transform="translate(-545.615 -510.106)" fill="#3c7a8f"/>
    <path id="Trazado_5" data-name="Trazado 5" d="M1286,662s-87,12-97-20c-8-25.612,14.1-81.333,23.245-102.558a64.554,64.554,0,0,1,14.461-21.094c6.727-6.459,15.244-11.739,21.294-5.348,0,0,15.291,104.326,35.146,112.663s98.133,13.792,98.133,13.792,22.213,2.83,42.967,20.687S1285,664,1285,664Z" transform="translate(-545.615 -510.106)" fill="#3c7a8f"/>
  </g>
  <rect id="Rectángulo_13" data-name="Rectángulo 13" width="48.111" height="48.111" rx="13.678" transform="translate(585.422 288.07) rotate(30)" fill="#e6d1e6"/>
  <path id="Trazado_6" data-name="Trazado 6" d="M1754.356,925.97s86.607-41.024,58.124-92.745-90.409-49.179-90.409-49.179Z" transform="translate(-117.648 -289.422)" fill="#e7d4f4"/>
  <path id="Trazado_7" data-name="Trazado 7" d="M1761.579,844.184s.8,1.437,2.245,4.139C1782.451,883.034,1909.235,1126.354,1848,1208c-66,88-89,87-89,87" transform="translate(-117.648 -289.422)" fill="#0b5972"/>
  <path id="Trazado_8" data-name="Trazado 8" d="M180,800s-86,128-56,213,68,88,68,88l31-126L180,797" transform="translate(-117.648 -289.422)" fill="#0b5972"/>
</svg>
