<svg xmlns="http://www.w3.org/2000/svg" xmlns:xlink="http://www.w3.org/1999/xlink" viewBox="0 0 425 118.49"><defs><style>.cls-1{font-size:92px;}.cls-1,.cls-11,.cls-12{fill:#fff152;}.cls-1,.cls-11,.cls-14{font-family:Cocogoose;}.cls-2{fill:url(#Degradado_sin_nombre_50);}.cls-3{fill:url(#Degradado_sin_nombre_12);}.cls-4{fill:url(#Degradado_sin_nombre_12-2);}.cls-5{fill:#ff387d;}.cls-6{fill:#ff6845;}.cls-7{fill:#6d38ff;}.cls-8{fill:#fff;}.cls-9{fill:url(#Degradado_sin_nombre_74);}.cls-10{fill:#1a1a1a;}.cls-11,.cls-14{font-size:85.39px;}.cls-13{fill:url(#Degradado_sin_nombre_87);}.cls-15{fill:url(#Degradado_sin_nombre_108);}</style><linearGradient id="Degradado_sin_nombre_50" x1="-146.13" y1="378.3" x2="-129.1" y2="378.3" gradientTransform="matrix(0, 1.22, -7.13, -0.01, 2711, 205.22)" gradientUnits="userSpaceOnUse"><stop offset="0" stop-color="#ffce2a"/><stop offset="0.86" stop-color="#fff152"/></linearGradient><linearGradient id="Degradado_sin_nombre_12" x1="24.06" y1="44.95" x2="28.1" y2="44.95" gradientUnits="userSpaceOnUse"><stop offset="0" stop-color="#ffce2a"/><stop offset="1" stop-color="#fff152"/></linearGradient><linearGradient id="Degradado_sin_nombre_12-2" x1="24.06" y1="18.66" x2="28.1" y2="18.66" xlink:href="#Degradado_sin_nombre_12"/><linearGradient id="Degradado_sin_nombre_74" x1="14.19" y1="20.27" x2="14.19" y2="19.68" gradientUnits="userSpaceOnUse"><stop offset="0" stop-color="#fff"/><stop offset="0.14" stop-color="#fff"/><stop offset="1" stop-color="#fff"/></linearGradient><linearGradient id="Degradado_sin_nombre_87" x1="46.57" y1="59.28" x2="218.92" y2="59.28" gradientUnits="userSpaceOnUse"><stop offset="0" stop-color="#fff152"/><stop offset="0.44"/></linearGradient><linearGradient id="Degradado_sin_nombre_108" x1="250.1" y1="28.57" x2="250.19" y2="44.27" gradientUnits="userSpaceOnUse"><stop offset="0" stop-color="#ffd32f"/><stop offset="0.91" stop-color="#ffee4f"/><stop offset="1" stop-color="#fff152"/></linearGradient></defs><title>Recurso 1</title><g id="Capa_2" data-name="Capa 2"><g id="Capa_5" data-name="Capa 5"><text class="cls-1" transform="translate(0 80.17) scale(0.96 1)">B</text><polyline class="cls-2" points="24.06 45.91 7.09 45.89 7.11 25.16 24.07 25.17 24.06 45.91 24.06 45.91"/><rect class="cls-3" x="24.06" y="38.78" width="4.03" height="12.35"/><rect class="cls-4" x="24.06" y="11.88" width="4.03" height="13.55"/><path class="cls-5" d="M4.49,19.72a1.55,1.55,0,0,0-1.55.59,1,1,0,0,0-.09.81S2.93,21,3,21s.07.14.11.14.14-.36.24-.58C3.64,19.9,4.52,19.8,4.49,19.72Z"/><rect class="cls-6" x="4.93" y="25.61" width="20.88" height="7.22" rx="0.78"/><rect class="cls-7" x="4.88" y="18.12" width="20.88" height="7.22" rx="0.89"/><rect class="cls-8" x="4.41" y="19.1" width="19.47" height="0.58"/><path d="M23.88,19.68l-19.47.08H4.34V19h.08l19.47.07h0Zm0,0V19.1h0l-19.47.07.07-.07v.58l-.07-.07Z"/><rect class="cls-9" x="4.49" y="19.68" width="19.39" height="0.58" rx="0.02"/><path d="M23.86,20.27l-10,.05H4.54s0,0-.09,0,0-.06,0-.09v-.53s.06-.09.09-.08l10,0,5,0h4.37c.09,0,0,.19,0,.28A1.08,1.08,0,0,1,23.86,20.27Zm0,0a1.62,1.62,0,0,0,0-.31c0-.09,0-.25,0-.27H22l-2.5,0h-5l-10,0s.07,0,.06-.06h0v.51s0,.08,0,0,0,0,0,0H8.9l5,0Z"/><rect class="cls-8" x="4.45" y="20.27" width="19.43" height="0.58" rx="0.18"/><path d="M23.7,20.85l-9.93,0H4.61a.26.26,0,0,1-.19-.1c-.09-.14,0-.25,0-.35a.26.26,0,0,1,.25-.28l9.94,0,5,0h4c.09,0,.22,0,.29.08s0,.2,0,.3A.18.18,0,0,1,23.7,20.85Zm0,0a.19.19,0,0,0,.18-.21c0-.1,0-.21,0-.3s-.18-.07-.28-.07h-4l-5,0-9.94,0a.11.11,0,0,0-.1.13c0,.1,0,.23,0,.26s.11,0,.23.05h4l5,0Z"/><rect class="cls-8" x="4.44" y="20.85" width="19.44" height="0.58"/><path d="M23.87,21.43l-19.43.08H4.36v-.74h.08l19.43.07h0Zm0,0v-.58h0l-19.43.07.07-.07v.58l-.07-.07Z"/><rect class="cls-8" x="4.53" y="21.44" width="19.35" height="0.58"/><path d="M23.88,22,4.53,22.1H4.46v-.74h.08l19.35.08h0Zm0,0v-.58h0l-19.35.07.07-.07V22L4.53,22Z"/><rect class="cls-8" x="4.4" y="22.03" width="19.47" height="0.58"/><path d="M23.87,22.62,4.4,22.69H4.33V22H4.4L23.87,22h0Zm0,0V22h0L4.4,22.11,4.48,22v.59l-.08-.08Z"/><rect class="cls-8" x="4.41" y="22.62" width="19.47" height="0.58"/><path d="M23.88,23.2l-19.47.07H4.34v-.73h.08l19.47.07h0Zm0,0v-.58h0l-19.47.07.07-.07v.58l-.07-.07Z"/><rect class="cls-8" x="4.49" y="23.2" width="19.39" height="0.58"/><path d="M23.87,23.78l-19.38.08H4.42v-.73h.08l19.38.07h0Zm0,0V23.2h0l-19.38.08.07-.08v.58l-.07-.07Z"/><rect class="cls-8" x="4.45" y="23.78" width="19.43" height="0.58"/><path d="M23.88,24.37l-19.43.07H4.37v-.73h.08l19.43.07h0Zm0,0v-.59h0l-19.43.07.07-.08v.59l-.07-.08Z"/><rect class="cls-8" x="4.46" y="26.59" width="19.47" height="0.58"/><path d="M23.93,27.17l-19.47.07H4.38v-.73h.08l19.47.07h0Zm0,0v-.58h0l-19.47.07.07-.07v.58l-.07-.07Z"/><rect class="cls-8" x="4.54" y="27.17" width="19.39" height="0.58" rx="0.01"/><path d="M23.92,27.75l-10,.05H4.58l-.08,0c-.06-.11,0,0,0-.08v-.54h0s0-.09.08-.09l10,0h5l2.49,0h1.88c.09,0,0,.19,0,.28S23.93,27.65,23.92,27.75Zm0,0a1.56,1.56,0,0,0,0-.58H22l-2.49,0h-5l-10,0s.08,0,.07-.06h0v.54l0,0c-.08,0,0,0,0,0h9.36Z"/><rect class="cls-8" x="4.49" y="27.75" width="19.43" height="0.58" rx="0.08"/><path d="M23.84,28.34l-10,0-5,0H5.14a3.18,3.18,0,0,1-.66,0,.13.13,0,0,1-.06-.12v-.39a.16.16,0,0,1,.16-.18l10,0,5,0h3.74a4.33,4.33,0,0,1,.62,0c.06.09,0,.2,0,.3S24,28.32,23.84,28.34Zm0,0c.13,0,.07-.18.09-.27s0-.22,0-.3a4.12,4.12,0,0,0-.61,0H19.54l-5,0-10,0a2.73,2.73,0,0,0,0,.43H8.88l5,0Z"/><rect class="cls-8" x="4.49" y="28.34" width="19.44" height="0.58" rx="0.02"/><path d="M23.9,28.92l-10,0H4.53a.11.11,0,0,1-.1,0c0-.07,0-.06,0-.08v-.51s0-.11.1-.1l10,0h5l2.5,0h1.88c.08.06,0,.2,0,.29S24,28.84,23.9,28.92Zm0,0a1.25,1.25,0,0,0,0-.58H22l-2.5,0-5,0-10,0s.06,0,0-.05v.43c0,.06,0,.12,0,.06H13.9Z"/><rect class="cls-8" x="4.58" y="28.93" width="19.35" height="0.58"/><path d="M23.93,29.51l-19.35.07H4.5v-.73h.08l19.35.07h0Zm0,0v-.58h0L4.58,29l.07-.07v.58l-.07-.07Z"/><rect class="cls-8" x="4.46" y="29.52" width="19.47" height="0.58" rx="0.12"/><path d="M23.8,30.1l-10,0-5,0h-4c-.1,0-.2.05-.35-.07s0-.24-.06-.35a1.36,1.36,0,0,1,0-.18.21.21,0,0,1,.19-.13l10,0,5,0h3.74a2,2,0,0,1,.61,0c.07.09,0,.2,0,.3S23.93,30.11,23.8,30.1Zm0,0c.13,0,.14-.14.13-.24s0-.21,0-.3a2.05,2.05,0,0,0-.61,0H19.54l-5,0-10,0c-.09-.06,0,.36,0,.42s.16,0,.25,0H8.84l5,0Z"/><rect class="cls-8" x="4.46" y="30.1" width="19.47" height="0.58" rx="0.17"/><path d="M23.76,30.69l-10,0H4.63a.29.29,0,0,1-.2-.09c-.09-.15,0-.25,0-.35A.26.26,0,0,1,4.63,30l10,0,5,0h4c.1,0,.22,0,.29.07s0,.2,0,.3A.18.18,0,0,1,23.76,30.69Zm0,0a.18.18,0,0,0,.17-.22c0-.1,0-.21,0-.3s-.19-.06-.29-.06h-4l-5,0-9.95,0c-.07,0-.11,0-.1.14s0,.23,0,.26.12,0,.23,0H8.83l5,0Z"/><rect class="cls-8" x="4.54" y="30.69" width="19.39" height="0.58" rx="0.02"/><path d="M23.91,31.27l-10,.05H4.56s-.07,0-.08,0a.32.32,0,0,1,0-.08v-.5s0-.11.09-.11l10,0h5l2.49,0h1.87c.09.05,0,.2,0,.29A1,1,0,0,1,23.91,31.27Zm0,0a1.38,1.38,0,0,0,0-.58H19.52l-5,0-10,0c.11-.09,0,0,.06,0v.39c0,.05,0,.12,0,.05h9.35Z"/><rect class="cls-8" x="4.49" y="31.27" width="19.43" height="0.58" rx="0.16"/><path d="M23.76,31.85l-9.94,0-5,0H4.66a.23.23,0,0,1-.19-.09c-.1-.15,0-.25-.06-.35s.08-.31.24-.29l9.94,0,5,0h4c.09,0,.22,0,.29.06s0,.21,0,.31A.17.17,0,0,1,23.76,31.85Zm0,0a.17.17,0,0,0,.16-.21c0-.1,0-.22,0-.31s-.2,0-.29-.06h-4l-5,0-9.94,0c-.06,0-.1,0-.09.14s0,.23,0,.26.12,0,.23,0h4l5,0Z"/><rect class="cls-10" x="23.77" y="19.1" width="0.16" height="5.27"/><rect class="cls-10" x="23.77" y="26.58" width="0.16" height="5.27"/><text class="cls-11" transform="translate(172.94 78.7) scale(0.96 1)">KFLIX</text><rect class="cls-12" x="159.43" y="15.24" width="22.52" height="13.18"/><path class="cls-12" d="M63.38,43.3c0-.12-.08-.25-.11-.38a7.36,7.36,0,0,0-1.47,4.87,24.6,24.6,0,0,0,1.39-3.19C63.24,44.16,63.31,43.73,63.38,43.3Z"/><path class="cls-12" d="M57.78,52.32a6.89,6.89,0,0,0,2.11-1.14,6.87,6.87,0,0,1-1.18-2.72A14.8,14.8,0,0,0,57.78,52.32Z"/><path class="cls-12" d="M137.94,49.2a6,6,0,0,0-.16.93l.06,0a6.51,6.51,0,0,0,1.52-1c0-1.11.1-2.24,0-3.32A13.47,13.47,0,0,0,137.94,49.2Z"/><path class="cls-12" d="M79.7,27.81A6.61,6.61,0,0,1,81,29.16a4.67,4.67,0,0,1,1.66-.67,5.18,5.18,0,0,1,.78-.09c-1.45-1.84-3.67-3.68-5.71-2.9a7.38,7.38,0,0,0,.45,1.91A1.81,1.81,0,0,1,79.7,27.81Z"/><path class="cls-13" d="M50.5,47.07a32.32,32.32,0,0,1,1.15-8.69,32.7,32.7,0,0,1,8.4-14.45,31.44,31.44,0,0,1,6.6-5.11,33.8,33.8,0,0,1,7.79-3.28,32.55,32.55,0,0,1,17.37,0,33.66,33.66,0,0,1,7.82,3.28,32.54,32.54,0,0,1,11.72,11.74,33.8,33.8,0,0,1,3.29,7.82,32.55,32.55,0,0,1,0,17.37,32.72,32.72,0,0,1-3.29,7.77,32.14,32.14,0,0,1-5.1,6.58,33.39,33.39,0,0,1-6.62,5.1,32.63,32.63,0,0,1-39.58-5.1,32.9,32.9,0,0,1-5.11-6.58,31.92,31.92,0,0,1-3.29-7.77A32.3,32.3,0,0,1,50.5,47.07ZM67,47a18.23,18.23,0,0,0,1.19,6.62A16.49,16.49,0,0,0,71.56,59a15.48,15.48,0,0,0,5.1,3.58,15.8,15.8,0,0,0,6.48,1.31,16,16,0,0,0,6.5-1.31A15.42,15.42,0,0,0,94.75,59a16.16,16.16,0,0,0,3.35-5.36,18.78,18.78,0,0,0,0-13.21A16.24,16.24,0,0,0,94.75,35a15.55,15.55,0,0,0-5.11-3.63,15.81,15.81,0,0,0-6.5-1.33,15.58,15.58,0,0,0-11.58,5,16.57,16.57,0,0,0-3.35,5.4A18.26,18.26,0,0,0,67,47Z"/><path class="cls-13" d="M123.29,47.07a32.32,32.32,0,0,1,1.15-8.69,32.7,32.7,0,0,1,8.4-14.45,31.7,31.7,0,0,1,6.6-5.11,33.8,33.8,0,0,1,7.79-3.28,32.55,32.55,0,0,1,17.37,0,33.66,33.66,0,0,1,7.82,3.28,32.54,32.54,0,0,1,11.72,11.74,33.8,33.8,0,0,1,3.29,7.82,32.55,32.55,0,0,1,0,17.37,32.72,32.72,0,0,1-3.29,7.77A32.14,32.14,0,0,1,179,70.1a33.1,33.1,0,0,1-6.62,5.1,32.63,32.63,0,0,1-39.58-5.1,32.9,32.9,0,0,1-5.11-6.58,31.92,31.92,0,0,1-3.29-7.77A32.3,32.3,0,0,1,123.29,47.07Zm16.52,0A18.23,18.23,0,0,0,141,53.64,16.49,16.49,0,0,0,144.35,59a15.58,15.58,0,0,0,5.1,3.58,15.8,15.8,0,0,0,6.48,1.31,16,16,0,0,0,6.5-1.31A15.56,15.56,0,0,0,167.55,59a16.3,16.3,0,0,0,3.34-5.36,18.78,18.78,0,0,0,0-13.21,16.38,16.38,0,0,0-3.34-5.4,15.92,15.92,0,0,0-23.2,0,16.57,16.57,0,0,0-3.35,5.4A18.26,18.26,0,0,0,139.81,47Z"/><text class="cls-14" transform="translate(46.57 78.7)">OO</text><rect class="cls-15" x="242.31" y="29.94" width="15.76" height="28.86"/></g></g></svg>