<svg xmlns="http://www.w3.org/2000/svg" xmlns:xlink="http://www.w3.org/1999/xlink" width="706.379" height="112.256" viewBox="0 0 706.379 112.256">
  <defs>
    <linearGradient id="linear-gradient" x1="-9.021" y1="17.023" x2="-8.018" y2="17.023" gradientUnits="objectBoundingBox">
      <stop offset="0" stop-color="#ffce2a"/>
      <stop offset="0.857" stop-color="#fff152"/>
    </linearGradient>
    <linearGradient id="linear-gradient-2" y1="0.5" x2="1" y2="0.5" gradientUnits="objectBoundingBox">
      <stop offset="0" stop-color="#ffce2a"/>
      <stop offset="1" stop-color="#fff152"/>
    </linearGradient>
    <linearGradient id="linear-gradient-5" x1="0.5" y1="1" x2="0.5" gradientUnits="objectBoundingBox">
      <stop offset="0" stop-color="#fff"/>
      <stop offset="0.143" stop-color="#fff"/>
      <stop offset="1" stop-color="#fff"/>
    </linearGradient>
    <linearGradient id="linear-gradient-6" x1="-0.06" y1="0.688" x2="2.578" y2="0.688" gradientUnits="objectBoundingBox">
      <stop offset="0" stop-color="#fff152"/>
      <stop offset="0.437"/>
    </linearGradient>
    <linearGradient id="linear-gradient-7" x1="-1.174" y1="0.688" x2="1.464" y2="0.688" xlink:href="#linear-gradient-6"/>
    <linearGradient id="linear-gradient-8" x1="0.494" y1="-0.048" x2="0.5" y2="0.496" gradientUnits="objectBoundingBox">
      <stop offset="0" stop-color="#ffd32f"/>
      <stop offset="0.91" stop-color="#ffee4e"/>
      <stop offset="1" stop-color="#fff152"/>
    </linearGradient>
  </defs>
  <g id="Capa_5" data-name="Capa 5" transform="translate(-764.615 -167.595)">
    <path id="Trazado_55" data-name="Trazado 55" d="M11.92-107.205a3.542,3.542,0,0,1,.857-2.5,3.125,3.125,0,0,1,2.421-.931H64.666a31,31,0,0,1,12.367,2.5A32.2,32.2,0,0,1,87.2-101.283a32.608,32.608,0,0,1,6.891,10.206,31.241,31.241,0,0,1,2.533,12.553A30.134,30.134,0,0,1,94.876-68.13a28.214,28.214,0,0,1-4.954,8.6,36.35,36.35,0,0,1,8.493,11.7,33.9,33.9,0,0,1,3.129,14.379A32.224,32.224,0,0,1,98.936-20.6,35.069,35.069,0,0,1,91.9-9.946,33.482,33.482,0,0,1,81.54-2.682,29.909,29.909,0,0,1,69.062,0H15.2a3.491,3.491,0,0,1-2.384-.782A3.051,3.051,0,0,1,11.92-3.2ZM71.967-34.568a12.381,12.381,0,0,0-.859-4.47,13.191,13.191,0,0,0-2.39-3.986,12.572,12.572,0,0,0-3.659-2.868,9.733,9.733,0,0,0-4.593-1.117H40.752v24.883H60.466a10.064,10.064,0,0,0,4.556-1.043,12.152,12.152,0,0,0,3.659-2.794,12.807,12.807,0,0,0,2.427-3.986A12.768,12.768,0,0,0,71.967-34.568ZM68.019-77.853a10.57,10.57,0,0,0-.822-4.172,10.7,10.7,0,0,0-2.316-3.427A10.817,10.817,0,0,0,61.295-87.8a11.906,11.906,0,0,0-4.556-.857H40.752V-67.05H56.514a13.443,13.443,0,0,0,4.669-.782,10.131,10.131,0,0,0,3.623-2.235,10.656,10.656,0,0,0,2.353-3.427A10.808,10.808,0,0,0,68.019-77.853Z" transform="translate(760 278.292)" fill="#fff152"/>
    <path id="Trazado_39" data-name="Trazado 39" d="M795.021,200.427,767.09,200.4l.027-34.124,27.931.022-.027,34.124h0" transform="translate(4.581 23.895)" fill="url(#linear-gradient)"/>
    <rect id="Rectángulo_24" data-name="Rectángulo 24" width="6.639" height="20.179" transform="translate(800.611 211.055)" fill="url(#linear-gradient-2)"/>
    <rect id="Rectángulo_25" data-name="Rectángulo 25" width="6.639" height="22.141" transform="translate(800.611 167.595)" fill="url(#linear-gradient-2)"/>
    <rect id="Rectángulo_26" data-name="Rectángulo 26" width="6.639" height="22.318" transform="translate(800.617 255.846)" fill="url(#linear-gradient-2)"/>
    <path id="Trazado_40" data-name="Trazado 40" d="M765.584,160.864a2.565,2.565,0,0,0-2.558.974,1.668,1.668,0,0,0-.143,1.338c.054.013.135-.221.245-.2s.114.224.183.232c.119.015.229-.589.39-.953C764.179,161.168,765.626,160.994,765.584,160.864Z" transform="translate(1.812 20.352)" fill="#ff387d"/>
    <rect id="Rectángulo_27" data-name="Rectángulo 27" width="34.371" height="11.877" rx="0.775" transform="translate(768.117 190.918)" fill="#ff6845"/>
    <rect id="Rectángulo_28" data-name="Rectángulo 28" width="34.371" height="11.877" rx="0.894" transform="translate(768.027 178.592)" fill="#6d38ff"/>
    <rect id="Rectángulo_29" data-name="Rectángulo 29" width="32.05" height="0.96" transform="translate(767.256 180.197)" fill="#fff" stroke="#000" stroke-miterlimit="10" stroke-width="0.15"/>
    <rect id="Rectángulo_30" data-name="Rectángulo 30" width="31.909" height="0.96" rx="0.015" transform="translate(767.397 181.157)" stroke="#000" stroke-miterlimit="10" stroke-width="0.15" fill="url(#linear-gradient-5)"/>
    <rect id="Rectángulo_31" data-name="Rectángulo 31" width="31.989" height="0.96" rx="0.178" transform="translate(767.317 182.117)" fill="#fff" stroke="#000" stroke-miterlimit="10" stroke-width="0.15"/>
    <rect id="Rectángulo_32" data-name="Rectángulo 32" width="31.996" height="0.96" transform="translate(767.301 183.077)" fill="#fff" stroke="#000" stroke-miterlimit="10" stroke-width="0.15"/>
    <rect id="Rectángulo_33" data-name="Rectángulo 33" width="31.852" height="0.96" transform="translate(767.453 184.05)" fill="#fff" stroke="#000" stroke-miterlimit="10" stroke-width="0.15"/>
    <rect id="Rectángulo_34" data-name="Rectángulo 34" width="32.05" height="0.96" transform="translate(767.247 185.029)" fill="#fff" stroke="#000" stroke-miterlimit="10" stroke-width="0.15"/>
    <rect id="Rectángulo_35" data-name="Rectángulo 35" width="32.05" height="0.96" transform="translate(767.256 185.989)" fill="#fff" stroke="#000" stroke-miterlimit="10" stroke-width="0.15"/>
    <rect id="Rectángulo_36" data-name="Rectángulo 36" width="31.909" height="0.96" transform="translate(767.389 186.949)" fill="#fff" stroke="#000" stroke-miterlimit="10" stroke-width="0.15"/>
    <rect id="Rectángulo_37" data-name="Rectángulo 37" width="31.989" height="0.96" transform="translate(767.317 187.909)" fill="#fff" stroke="#000" stroke-miterlimit="10" stroke-width="0.15"/>
    <rect id="Rectángulo_38" data-name="Rectángulo 38" width="32.05" height="0.96" transform="translate(767.334 192.521)" fill="#fff" stroke="#000" stroke-miterlimit="10" stroke-width="0.15"/>
    <rect id="Rectángulo_39" data-name="Rectángulo 39" width="31.909" height="0.96" rx="0.007" transform="translate(767.475 193.481)" fill="#fff" stroke="#000" stroke-miterlimit="10" stroke-width="0.15"/>
    <rect id="Rectángulo_40" data-name="Rectángulo 40" width="31.989" height="0.96" rx="0.085" transform="translate(767.395 194.441)" fill="#fff" stroke="#000" stroke-miterlimit="10" stroke-width="0.15"/>
    <rect id="Rectángulo_41" data-name="Rectángulo 41" width="31.996" height="0.96" rx="0.023" transform="translate(767.388 195.401)" fill="#fff" stroke="#000" stroke-miterlimit="10" stroke-width="0.15"/>
    <rect id="Rectángulo_42" data-name="Rectángulo 42" width="31.852" height="0.96" transform="translate(767.531 196.374)" fill="#fff" stroke="#000" stroke-miterlimit="10" stroke-width="0.15"/>
    <rect id="Rectángulo_43" data-name="Rectángulo 43" width="32.05" height="0.96" rx="0.124" transform="translate(767.334 197.353)" fill="#fff" stroke="#000" stroke-miterlimit="10" stroke-width="0.15"/>
    <rect id="Rectángulo_44" data-name="Rectángulo 44" width="32.05" height="0.96" rx="0.17" transform="translate(767.334 198.313)" fill="#fff" stroke="#000" stroke-miterlimit="10" stroke-width="0.15"/>
    <rect id="Rectángulo_45" data-name="Rectángulo 45" width="31.909" height="0.96" rx="0.016" transform="translate(767.468 199.273)" fill="#fff" stroke="#000" stroke-miterlimit="10" stroke-width="0.15"/>
    <rect id="Rectángulo_46" data-name="Rectángulo 46" width="31.989" height="0.96" rx="0.162" transform="translate(767.388 200.233)" fill="#fff" stroke="#000" stroke-miterlimit="10" stroke-width="0.15"/>
    <rect id="Rectángulo_47" data-name="Rectángulo 47" width="0.257" height="8.672" transform="translate(799.127 180.197)" fill="#1a1a1a"/>
    <rect id="Rectángulo_48" data-name="Rectángulo 48" width="0.257" height="8.672" transform="translate(799.127 192.518)" fill="#1a1a1a"/>
    <path id="Trazado_54" data-name="Trazado 54" d="M11.051-100.15a3.148,3.148,0,0,1,.8-2.155,2.846,2.846,0,0,1,2.253-.9H34.62a3.75,3.75,0,0,1,2.183.834,2.618,2.618,0,0,1,1.144,2.224v37.878Q45.523-72,52.82-81.454t14.8-19.182a6.01,6.01,0,0,1,1.981-1.911,4.641,4.641,0,0,1,2.4-.73h26.41q1.668,0,1.668,1.043a2.912,2.912,0,0,1-.765,1.668L66.581-57.407l36.21,54.488a3.854,3.854,0,0,1,.765,1.877Q103.555,0,102.026,0H75.755a4.447,4.447,0,0,1-2.328-.7,5.909,5.909,0,0,1-1.911-1.877q-3.684-5-6.707-9.591T58.936-21.3q-2.85-4.552-5.769-9.209t-6.394-9.8L37.947-30.163V-3.058Q37.947,0,34.62,0H14.17q-3.12,0-3.12-3.058Zm106.96.139a3.178,3.178,0,0,1,.8-2.294,2.812,2.812,0,0,1,1.911-.9h66.512a3.039,3.039,0,0,1,2.4.9,3.522,3.522,0,0,1,.8,2.425V-82.7a3.621,3.621,0,0,1-.834,2.252,2.893,2.893,0,0,1-2.432,1.074H144.908v21.545h31.205a3.426,3.426,0,0,1,2.224.73,2.818,2.818,0,0,1,.9,2.328v16.611a3.736,3.736,0,0,1-.8,2.259,2.578,2.578,0,0,1-2.189,1.077H144.908V-2.989q0,2.989-3.2,2.989h-21.2a2.626,2.626,0,0,1-2.5-2.919Zm87.153-.209a3.068,3.068,0,0,1,.834-2.155,2.967,2.967,0,0,1,2.294-.9h20.572a3.234,3.234,0,0,1,2.155.834,2.992,2.992,0,0,1,1.042,2.224V-24.6h38.225a3.068,3.068,0,0,1,2.154.834,2.967,2.967,0,0,1,.9,2.293V-3.2a3.314,3.314,0,0,1-.8,2.155A2.953,2.953,0,0,1,270.286,0H208.222q-3.058,0-3.058-3.058Zm84.651.069a3.227,3.227,0,0,1,.764-2.155,2.836,2.836,0,0,1,2.294-.9h20.433a3.916,3.916,0,0,1,2.224.834,2.594,2.594,0,0,1,1.182,2.224V-3.058Q316.712,0,313.306,0H292.873q-3.058,0-3.058-3.058Zm39.2,98.343q.556-1.042,1.147-2.12a25.607,25.607,0,0,1,1.355-2.189l31.275-46.7Q354.8-64.843,346.979-76.589t-15.811-23.769a6.93,6.93,0,0,1-.66-1.042,3.2,3.2,0,0,1-.313-1.043.68.68,0,0,1,.8-.521,2.693,2.693,0,0,0,1.355-.313h24.186a4.462,4.462,0,0,1,4.031,2.641L377.594-75.06l17.236-25.576a4.462,4.462,0,0,1,4.031-2.641H422q.765,0,1.425.035a3.351,3.351,0,0,1,1.147.243.674.674,0,0,1,.487.626,3.01,3.01,0,0,1-.764,1.807L392.328-52.82l32.6,48.65A12.107,12.107,0,0,1,426-2.4a2.521,2.521,0,0,1,.313,1.355Q426.313,0,425.062,0H400.181a3.623,3.623,0,0,1-2.155-.7A4.722,4.722,0,0,1,396.5-2.572l-18.9-28.009L358.9-2.572A4.722,4.722,0,0,1,357.369-.7a3.623,3.623,0,0,1-2.155.7H330.264a1.577,1.577,0,0,1-.973-.313,1.025,1.025,0,0,1-.417-.869A1.379,1.379,0,0,1,329.013-1.807Z" transform="translate(1044.67 276.745)" fill="#fff152"/>
    <rect id="Rectángulo_49" data-name="Rectángulo 49" width="37.069" height="21.687" transform="translate(1022.43 173.846)" fill="#fff152"/>
    <rect id="Rectángulo_50" data-name="Rectángulo 50" width="37.069" height="21.687" transform="translate(1020.791 256.617)" fill="#fff152"/>
    <path id="Trazado_41" data-name="Trazado 41" d="M824.44,184.668c-.064-.209-.133-.418-.191-.627-1.542,2.407-2.854,5.331-2.421,8.011a39.191,39.191,0,0,0,2.29-5.254Q824.251,185.717,824.44,184.668Z" transform="translate(39.889 35.369)" fill="#fff152"/>
    <path id="Trazado_42" data-name="Trazado 42" d="M817.78,195.938a11.3,11.3,0,0,0,3.465-1.883,11.371,11.371,0,0,1-1.936-4.477A24.7,24.7,0,0,0,817.78,195.938Z" transform="translate(37.328 38.946)" fill="#fff152"/>
    <path id="Trazado_43" data-name="Trazado 43" d="M898.05,192.544a10.321,10.321,0,0,0-.272,1.536l.105-.048a10.663,10.663,0,0,0,2.491-1.714c.01-1.825.17-3.69,0-5.455A22.178,22.178,0,0,0,898.05,192.544Z" transform="translate(89.009 37.193)" fill="#fff152"/>
    <path id="Trazado_44" data-name="Trazado 44" d="M840.973,170.543a10.578,10.578,0,0,1,2.141,2.225,7.365,7.365,0,0,1,2.728-1.108,9.381,9.381,0,0,1,1.286-.153c-2.379-3.029-6.031-6.061-9.4-4.764a11.955,11.955,0,0,0,.751,3.132A2.982,2.982,0,0,1,840.973,170.543Z" transform="translate(50.213 23.996)" fill="#fff152"/>
    <g id="Grupo_26" data-name="Grupo 26" transform="translate(836.656 136.745)">
      <g id="Grupo_25" data-name="Grupo 25" transform="translate(6.466 35.656)">
        <path id="Trazado_45" data-name="Trazado 45" d="M810.5,209.312a53.4,53.4,0,0,1,7.312-27.161,54.5,54.5,0,0,1,8.4-10.928,52.473,52.473,0,0,1,10.865-8.4,55.112,55.112,0,0,1,12.833-5.412,53.82,53.82,0,0,1,28.585,0,54.968,54.968,0,0,1,12.869,5.412,53.363,53.363,0,0,1,19.3,19.324,55.879,55.879,0,0,1,5.414,12.86,53.88,53.88,0,0,1,0,28.6,54.487,54.487,0,0,1-5.414,12.79,52.919,52.919,0,0,1-8.4,10.823,54.964,54.964,0,0,1-10.9,8.4,53.019,53.019,0,0,1-12.869,5.412,53.669,53.669,0,0,1-52.283-13.809,54.45,54.45,0,0,1-8.4-10.823,52.424,52.424,0,0,1-5.414-12.79A53.306,53.306,0,0,1,810.5,209.312Zm27.2-.071a29.824,29.824,0,0,0,1.964,10.893,26.911,26.911,0,0,0,5.511,8.819,25.655,25.655,0,0,0,8.385,5.9,27.708,27.708,0,0,0,21.37,0,25.567,25.567,0,0,0,8.421-5.9,26.881,26.881,0,0,0,5.509-8.819,31.074,31.074,0,0,0,0-21.751,27.2,27.2,0,0,0-5.509-8.889,26.184,26.184,0,0,0-38.177,0,27.225,27.225,0,0,0-5.511,8.889A29.91,29.91,0,0,0,837.694,209.241Z" transform="translate(-810.498 -155.482)" fill="url(#linear-gradient-6)"/>
        <path id="Trazado_46" data-name="Trazado 46" d="M883.288,209.312a53.381,53.381,0,0,1,7.313-27.161,54.432,54.432,0,0,1,8.4-10.928,52.465,52.465,0,0,1,10.864-8.4,55.158,55.158,0,0,1,12.834-5.412,53.821,53.821,0,0,1,28.585,0,55,55,0,0,1,12.869,5.412,53.341,53.341,0,0,1,19.3,19.324,55.809,55.809,0,0,1,5.415,12.86,53.882,53.882,0,0,1,0,28.6,54.419,54.419,0,0,1-5.415,12.79,52.911,52.911,0,0,1-8.4,10.823,54.966,54.966,0,0,1-10.9,8.4,53.795,53.795,0,0,1-54.288,0A54.442,54.442,0,0,1,890.6,236.4a52.492,52.492,0,0,1-5.415-12.79A53.3,53.3,0,0,1,883.288,209.312Zm27.2-.071a29.861,29.861,0,0,0,1.964,10.893,26.937,26.937,0,0,0,5.511,8.819,25.68,25.68,0,0,0,8.386,5.9,27.709,27.709,0,0,0,21.371,0,25.583,25.583,0,0,0,8.421-5.9,26.934,26.934,0,0,0,5.509-8.819,31.073,31.073,0,0,0,0-21.751,27.249,27.249,0,0,0-5.509-8.889,26.187,26.187,0,0,0-38.178,0,27.252,27.252,0,0,0-5.511,8.889A29.947,29.947,0,0,0,910.484,209.241Z" transform="translate(-763.473 -155.482)" fill="url(#linear-gradient-7)"/>
      </g>
      <path id="Trazado_56" data-name="Trazado 56" d="M33.291-51.569A29.5,29.5,0,0,0,35.234-40.8a26.608,26.608,0,0,0,5.449,8.722,25.4,25.4,0,0,0,8.294,5.838,25.777,25.777,0,0,0,10.55,2.12,26.021,26.021,0,0,0,10.585-2.12,25.3,25.3,0,0,0,8.329-5.838A26.608,26.608,0,0,0,83.889-40.8a29.5,29.5,0,0,0,1.943-10.773,29.58,29.58,0,0,0-1.943-10.738A26.924,26.924,0,0,0,78.441-71.1a25.486,25.486,0,0,0-8.329-5.908,25.66,25.66,0,0,0-10.585-2.155,25.42,25.42,0,0,0-10.55,2.155A25.588,25.588,0,0,0,40.682-71.1a26.924,26.924,0,0,0-5.449,8.792A29.58,29.58,0,0,0,33.291-51.569Zm-26.9.069A52.725,52.725,0,0,1,8.272-65.643a53.184,53.184,0,0,1,5.355-12.718,53.877,53.877,0,0,1,8.311-10.807,51.844,51.844,0,0,1,10.745-8.305,54.525,54.525,0,0,1,12.692-5.352,51.923,51.923,0,0,1,14.152-1.911,52.04,52.04,0,0,1,14.118,1.911,54.367,54.367,0,0,1,12.727,5.352,52.673,52.673,0,0,1,10.78,8.305,52.229,52.229,0,0,1,8.311,10.807,55.133,55.133,0,0,1,5.355,12.718A51.827,51.827,0,0,1,112.729-51.5a51.827,51.827,0,0,1-1.912,14.143,53.778,53.778,0,0,1-5.355,12.649A52.222,52.222,0,0,1,97.151-14,54.354,54.354,0,0,1,86.372-5.7,52.474,52.474,0,0,1,73.644-.348,52.943,52.943,0,0,1,59.527,1.529,52.824,52.824,0,0,1,45.374-.348,52.612,52.612,0,0,1,32.682-5.7,53.476,53.476,0,0,1,21.937-14a53.883,53.883,0,0,1-8.311-10.7A51.909,51.909,0,0,1,8.272-37.356,52.725,52.725,0,0,1,6.394-51.5Zm145.394-.069A29.5,29.5,0,0,0,153.731-40.8a26.608,26.608,0,0,0,5.449,8.722,25.4,25.4,0,0,0,8.294,5.838,25.777,25.777,0,0,0,10.55,2.12,26.021,26.021,0,0,0,10.585-2.12,25.3,25.3,0,0,0,8.329-5.838,26.608,26.608,0,0,0,5.449-8.722,29.5,29.5,0,0,0,1.943-10.773,29.58,29.58,0,0,0-1.943-10.738,26.924,26.924,0,0,0-5.449-8.792,25.486,25.486,0,0,0-8.329-5.908,25.66,25.66,0,0,0-10.585-2.155,25.42,25.42,0,0,0-10.55,2.155A25.588,25.588,0,0,0,159.18-71.1a26.924,26.924,0,0,0-5.449,8.792A29.58,29.58,0,0,0,151.788-51.569Zm-26.9.069a52.725,52.725,0,0,1,1.878-14.143,53.184,53.184,0,0,1,5.355-12.718,53.877,53.877,0,0,1,8.311-10.807,51.844,51.844,0,0,1,10.745-8.305,54.525,54.525,0,0,1,12.692-5.352,51.923,51.923,0,0,1,14.152-1.911,52.04,52.04,0,0,1,14.118,1.911,54.367,54.367,0,0,1,12.727,5.352,52.673,52.673,0,0,1,10.78,8.305,52.228,52.228,0,0,1,8.311,10.807,55.132,55.132,0,0,1,5.355,12.718A51.827,51.827,0,0,1,231.227-51.5a51.827,51.827,0,0,1-1.912,14.143,53.778,53.778,0,0,1-5.355,12.649A52.222,52.222,0,0,1,215.649-14,54.354,54.354,0,0,1,204.869-5.7,52.474,52.474,0,0,1,192.142-.348a52.943,52.943,0,0,1-14.118,1.877A52.824,52.824,0,0,1,163.872-.348,52.613,52.613,0,0,1,151.179-5.7,53.476,53.476,0,0,1,140.435-14a53.884,53.884,0,0,1-8.311-10.7,51.909,51.909,0,0,1-5.355-12.649A52.725,52.725,0,0,1,124.891-51.5Z" transform="translate(1.179 141)"/>
    </g>
    <rect id="Rectángulo_51" data-name="Rectángulo 51" width="25.945" height="47.51" transform="translate(1164.507 198.045)" fill="url(#linear-gradient-8)"/>
  </g>
</svg>
